<svg viewBox="0 0 800 800" xmlns="http://www.w3.org/2000/svg"><path d="M771.9 400c0 205.3-166.6 371.9-371.9 371.9S28.1 605.3 28.1 400 194.7 28.1 400 28.1 771.9 194.7 771.9 400z" fill="#4DB6AC"/><path d="M179.6 347.3c0 87.2 70.7 158 158 158 26.7 0 51.9-6.7 73.9-18.4l109.8 109.8h0c8.4 8.6 20.1 13.9 33.1 13.9 25.7 0 46.5-20.8 46.5-46.5 0-13-5.3-24.7-13.9-33.1l.1-.1-109.9-109.7c11.7-22 18.4-47.1 18.4-73.8 0-87.2-70.7-158-158-158s-158 70.7-158 157.9z" fill="none" stroke="#FFF" stroke-linejoin="round" stroke-miterlimit="10" stroke-width="16"/><path d="M461.6 350.4c0-49-29.3-91.1-71.4-109.7" fill="none" stroke="#FFF" stroke-linecap="round" stroke-miterlimit="10" stroke-width="16"/></svg>